<?xml version="1.0" standalone="no"?>
<!DOCTYPE svg PUBLIC "-//W3C//DTD SVG 20010904//EN"
 "http://www.w3.org/TR/2001/REC-SVG-20010904/DTD/svg10.dtd">
<svg version="1.0" xmlns="http://www.w3.org/2000/svg"
 width="365.000000pt" height="365.000000pt" viewBox="0 0 365.000000 365.000000"
 preserveAspectRatio="xMidYMid meet">
<metadata>
Created by potrace 1.11, written by Peter Selinger 2001-2013
</metadata>
<g transform="translate(0.000000,365.000000) scale(0.100000,-0.100000)"
fill="#000000" stroke="none">
<path d="M1650 3594 c-14 -2 -59 -9 -100 -15 -260 -37 -536 -149 -760 -307
-122 -86 -326 -290 -412 -412 -205 -290 -312 -611 -325 -970 -21 -609 272
-1178 786 -1522 311 -208 663 -307 1053 -295 192 5 294 23 476 83 334 109 616
309 849 601 79 99 99 131 177 283 120 234 186 505 186 762 0 373 -101 714
-298 1009 -288 430 -726 703 -1240 774 -100 13 -325 18 -392 9z"/>
</g>
</svg>
